<svg width="165" height="43" viewBox="0 0 165 43" fill="none" xmlns="http://www.w3.org/2000/svg">
<path d="M10.976 22.5H6.528V4.964H0.128V1.252H17.408V4.964H10.976V22.5ZM25.618 16.516L25.65 14.788C25.234 15.204 24.498 15.428 22.962 15.716C20.594 16.164 19.826 16.836 19.826 18.18C19.826 19.364 20.53 19.94 21.842 19.94C23.986 19.94 25.586 18.372 25.618 16.516ZM29.81 22.5H25.938C25.81 22.116 25.714 21.572 25.682 21.092C24.69 22.18 23.026 22.916 20.914 22.916C17.33 22.916 15.666 21.156 15.666 18.596C15.666 14.052 18.706 13.54 22.898 12.964C24.978 12.676 25.554 12.26 25.554 11.172C25.554 10.148 24.53 9.54 22.898 9.54C21.01 9.54 20.242 10.468 20.05 11.876H16.178C16.242 8.612 18.034 6.34 23.09 6.34C28.082 6.34 29.81 8.58 29.81 12.548V22.5ZM35.8045 22.5H31.6445V0.995998H35.8045V22.5ZM41.4868 13.092H47.9188C47.8548 10.756 46.3188 9.636 44.6868 9.636C43.0228 9.636 41.6468 10.916 41.4868 13.092ZM52.2068 15.716H41.3588C41.4868 18.084 42.8308 19.62 44.8788 19.62C46.2228 19.62 47.4068 18.948 47.6948 17.86H51.9828C51.0228 21.092 48.4308 22.916 45.0708 22.916C39.8228 22.916 37.1988 20.036 37.1988 14.34C37.1988 9.476 39.9828 6.34 44.8148 6.34C49.6468 6.34 52.2068 9.476 52.2068 15.716ZM67.9165 22.5H63.7245V12.964C63.7245 10.532 63.0205 9.86 61.0365 9.86C58.8605 9.86 57.8045 11.076 57.8045 13.476V22.5H53.6445V6.756H57.6125V9.06C58.5725 7.3 60.1725 6.34 62.7005 6.34C65.7085 6.34 67.9165 8.164 67.9165 11.588V22.5ZM78.6663 16.228V12.132H82.5383V16.612C82.5383 19.94 80.6183 22.916 76.1703 22.916C71.5623 22.916 69.7383 19.972 69.7383 16.58V2.5H73.8343V6.756H82.5383V9.7H73.8343V16.164C73.8343 18.148 74.5383 19.3 76.2343 19.3C77.8983 19.3 78.6663 18.18 78.6663 16.228Z" fill="#6333E3"/>
<path d="M97.9343 13.54H88.5903V22.5H84.1423V1.252H99.2783V4.964H88.5903V9.796H97.9343V13.54ZM104.651 22.5H100.491V6.756H104.651V22.5ZM104.651 4.868H100.491V0.995998H104.651V4.868ZM120.823 22.5H116.631V12.964C116.631 10.532 115.927 9.86 113.943 9.86C111.767 9.86 110.711 11.076 110.711 13.476V22.5H106.551V6.756H110.519V9.06C111.479 7.3 113.079 6.34 115.607 6.34C118.615 6.34 120.823 8.164 120.823 11.588V22.5ZM130.101 19.524C132.085 19.524 133.621 17.668 133.621 15.012C133.621 11.588 132.437 9.892 130.133 9.892C127.701 9.892 126.549 11.524 126.549 14.756C126.549 17.572 128.021 19.524 130.101 19.524ZM137.557 22.5H133.557L133.525 20.58C132.533 22.18 131.061 22.916 129.141 22.916C125.173 22.916 122.325 19.78 122.325 14.468C122.325 9.7 124.725 6.34 128.789 6.34C130.741 6.34 132.277 7.14 133.461 8.804V0.995998H137.557V22.5ZM143.331 13.092H149.763C149.699 10.756 148.163 9.636 146.531 9.636C144.867 9.636 143.491 10.916 143.331 13.092ZM154.051 15.716H143.203C143.331 18.084 144.675 19.62 146.723 19.62C148.067 19.62 149.251 18.948 149.539 17.86H153.827C152.867 21.092 150.275 22.916 146.915 22.916C141.667 22.916 139.043 20.036 139.043 14.34C139.043 9.476 141.827 6.34 146.659 6.34C151.491 6.34 154.051 9.476 154.051 15.716ZM159.648 22.5H155.488V6.756H159.392V8.644C160.768 6.532 162.368 6.34 164.064 6.34H164.608V10.596C164.224 10.532 163.84 10.5 163.456 10.5C160.896 10.5 159.648 11.78 159.648 14.308V22.5Z" fill="#202020"/>
<path d="M99.352 32.256C99.6133 31.7987 99.996 31.4253 100.5 31.136C101.004 30.8467 101.578 30.702 102.222 30.702C102.913 30.702 103.533 30.8653 104.084 31.192C104.635 31.5187 105.069 31.9807 105.386 32.578C105.703 33.166 105.862 33.852 105.862 34.636C105.862 35.4107 105.703 36.1013 105.386 36.708C105.069 37.3147 104.63 37.786 104.07 38.122C103.519 38.458 102.903 38.626 102.222 38.626C101.559 38.626 100.976 38.4813 100.472 38.192C99.9773 37.9027 99.604 37.534 99.352 37.086V38.5H98.078V28.14H99.352V32.256ZM104.56 34.636C104.56 34.0573 104.443 33.5533 104.21 33.124C103.977 32.6947 103.659 32.368 103.258 32.144C102.866 31.92 102.432 31.808 101.956 31.808C101.489 31.808 101.055 31.9247 100.654 32.158C100.262 32.382 99.9447 32.7133 99.702 33.152C99.4687 33.5813 99.352 34.0807 99.352 34.65C99.352 35.2287 99.4687 35.7373 99.702 36.176C99.9447 36.6053 100.262 36.9367 100.654 37.17C101.055 37.394 101.489 37.506 101.956 37.506C102.432 37.506 102.866 37.394 103.258 37.17C103.659 36.9367 103.977 36.6053 104.21 36.176C104.443 35.7373 104.56 35.224 104.56 34.636ZM114.147 30.828L109.527 42.112H108.211L109.723 38.416L106.629 30.828H108.043L110.451 37.044L112.831 30.828H114.147ZM120.434 32.074C120.658 31.6353 120.975 31.2947 121.386 31.052C121.806 30.8093 122.315 30.688 122.912 30.688V32.004H122.576C121.148 32.004 120.434 32.7787 120.434 34.328V38.5H119.16V30.828H120.434V32.074ZM131.383 34.37C131.383 34.6127 131.369 34.8693 131.341 35.14H125.209C125.255 35.896 125.512 36.4887 125.979 36.918C126.455 37.338 127.029 37.548 127.701 37.548C128.251 37.548 128.709 37.422 129.073 37.17C129.446 36.9087 129.707 36.5633 129.857 36.134H131.229C131.023 36.8713 130.613 37.4733 129.997 37.94C129.381 38.3973 128.615 38.626 127.701 38.626C126.973 38.626 126.319 38.4627 125.741 38.136C125.171 37.8093 124.723 37.3473 124.397 36.75C124.07 36.1433 123.907 35.4433 123.907 34.65C123.907 33.8567 124.065 33.1613 124.383 32.564C124.7 31.9667 125.143 31.5093 125.713 31.192C126.291 30.8653 126.954 30.702 127.701 30.702C128.429 30.702 129.073 30.8607 129.633 31.178C130.193 31.4953 130.622 31.934 130.921 32.494C131.229 33.0447 131.383 33.67 131.383 34.37ZM130.067 34.104C130.067 33.6187 129.959 33.2033 129.745 32.858C129.53 32.5033 129.236 32.2373 128.863 32.06C128.499 31.8733 128.093 31.78 127.645 31.78C127.001 31.78 126.45 31.9853 125.993 32.396C125.545 32.8067 125.288 33.376 125.223 34.104H130.067ZM143.284 30.828L140.89 38.5H139.574L137.726 32.41L135.878 38.5H134.562L132.154 30.828H133.456L135.22 37.268L137.124 30.828H138.426L140.288 37.282L142.024 30.828H143.284ZM147.895 38.626C147.176 38.626 146.523 38.4627 145.935 38.136C145.356 37.8093 144.899 37.3473 144.563 36.75C144.236 36.1433 144.073 35.4433 144.073 34.65C144.073 33.866 144.241 33.1753 144.577 32.578C144.922 31.9713 145.389 31.5093 145.977 31.192C146.565 30.8653 147.223 30.702 147.951 30.702C148.679 30.702 149.337 30.8653 149.925 31.192C150.513 31.5093 150.975 31.9667 151.311 32.564C151.656 33.1613 151.829 33.8567 151.829 34.65C151.829 35.4433 151.651 36.1433 151.297 36.75C150.951 37.3473 150.48 37.8093 149.883 38.136C149.285 38.4627 148.623 38.626 147.895 38.626ZM147.895 37.506C148.352 37.506 148.781 37.3987 149.183 37.184C149.584 36.9693 149.906 36.6473 150.149 36.218C150.401 35.7887 150.527 35.266 150.527 34.65C150.527 34.034 150.405 33.5113 150.163 33.082C149.92 32.6527 149.603 32.3353 149.211 32.13C148.819 31.9153 148.394 31.808 147.937 31.808C147.47 31.808 147.041 31.9153 146.649 32.13C146.266 32.3353 145.958 32.6527 145.725 33.082C145.491 33.5113 145.375 34.034 145.375 34.65C145.375 35.2753 145.487 35.8027 145.711 36.232C145.944 36.6613 146.252 36.9833 146.635 37.198C147.017 37.4033 147.437 37.506 147.895 37.506ZM154.778 32.074C155.002 31.6353 155.319 31.2947 155.73 31.052C156.15 30.8093 156.658 30.688 157.256 30.688V32.004H156.92C155.492 32.004 154.778 32.7787 154.778 34.328V38.5H153.504V30.828H154.778V32.074ZM163.01 38.5L160 35.112V38.5H158.726V28.14H160V34.23L162.954 30.828H164.732L161.12 34.65L164.746 38.5H163.01Z" fill="#202020"/>
</svg>
