<svg width="125" height="20" viewBox="0 0 125 20" fill="none" xmlns="http://www.w3.org/2000/svg">
<path d="M10.5853 0L13.9296 5.55041L20.4238 6.90983L15.9965 11.6996L16.6658 18.0902L10.5853 15.5L4.50477 18.0902L5.17412 11.6996L0.746791 6.90983L7.24101 5.55041L10.5853 0Z" fill="#FFCB45"/>
<path d="M36.4473 0L39.8465 5.71318L46.4473 7.11247L41.9473 12.0427L42.6276 18.6207L36.4473 15.9546L30.2669 18.6207L30.9473 12.0427L26.4473 7.11247L33.0481 5.71318L36.4473 0Z" fill="#FFCB45"/>
<path d="M62.6545 0L66.0537 5.71318L72.6545 7.11247L68.1545 12.0427L68.8349 18.6207L62.6545 15.9546L56.4742 18.6207L57.1545 12.0427L52.6545 7.11247L59.2554 5.71318L62.6545 0Z" fill="#FFCB45"/>
<path d="M88.5167 0L91.7987 5.71318L98.1719 7.11247L93.8271 12.0427L94.484 18.6207L88.5167 15.9546L82.5495 18.6207L83.2064 12.0427L78.8616 7.11247L85.2348 5.71318L88.5167 0Z" fill="#FFCB45"/>
<path d="M114.724 0L118.006 5.71318L124.379 7.11247L120.034 12.0427L120.691 18.6207L114.724 15.9546L108.757 18.6207L109.413 12.0427L105.069 7.11247L111.442 5.71318L114.724 0Z" fill="#FFCB45"/>
</svg>
