<svg width="1538" height="298" viewBox="0 0 1538 298" fill="none" xmlns="http://www.w3.org/2000/svg">
<path d="M152 296.813L151.961 297.812L152 296.813ZM418 24.8126L417.038 25.086L418 24.8126ZM479 141.812L478.727 142.775L479 141.812ZM838 234L838.326 234.945L838 234ZM1536.58 46.218C1537.08 46.4525 1537.67 46.2373 1537.91 45.7373C1538.14 45.2373 1537.92 44.6418 1537.42 44.4073L1536.58 46.218ZM718 141.812L718.215 140.836L718 141.812ZM2.66792 165.07C2.99607 165.514 3.6222 165.608 4.06643 165.28C4.51066 164.952 4.60476 164.326 4.27662 163.881L2.66792 165.07ZM8.92923 170.593C8.62409 170.133 8.00354 170.007 7.54321 170.312C7.08289 170.617 6.95709 171.238 7.26223 171.698L8.92923 170.593ZM11.691 178.527C11.9883 178.993 12.6066 179.129 13.0721 178.832C13.5375 178.535 13.6738 177.916 13.3765 177.451L11.691 178.527ZM17.7097 184.271C17.4139 183.804 16.796 183.666 16.3296 183.962C15.8632 184.258 15.7249 184.875 16.0206 185.342L17.7097 184.271ZM20.3948 192.217C20.6924 192.683 21.3108 192.818 21.7761 192.521C22.2413 192.223 22.3772 191.605 22.0796 191.14L20.3948 192.217ZM26.4695 197.943C26.1679 197.48 25.5484 197.35 25.0857 197.651C24.623 197.953 24.4924 198.573 24.794 199.035L26.4695 197.943ZM29.2689 205.814C29.5761 206.273 30.1972 206.396 30.6562 206.089C31.1152 205.782 31.2382 205.161 30.9311 204.702L29.2689 205.814ZM35.4891 211.406C35.175 210.952 34.5521 210.838 34.0978 211.152C33.6435 211.466 33.5299 212.089 33.8439 212.543L35.4891 211.406ZM38.5322 219.201C38.8543 219.65 39.4791 219.752 39.9278 219.43C40.3764 219.108 40.479 218.483 40.157 218.035L38.5322 219.201ZM44.9483 224.571C44.6172 224.129 43.9904 224.039 43.5484 224.37C43.1064 224.701 43.0165 225.328 43.3476 225.77L44.9483 224.571ZM48.2987 232.226C48.6399 232.661 49.2685 232.736 49.7028 232.395C50.1371 232.054 50.2126 231.425 49.8714 230.991L48.2987 232.226ZM54.9479 237.288C54.5957 236.863 53.9653 236.804 53.5399 237.156C53.1145 237.508 53.0551 238.138 53.4073 238.564L54.9479 237.288ZM58.6889 244.764C59.0531 245.179 59.6849 245.221 60.1001 244.857C60.5152 244.492 60.5566 243.861 60.1924 243.445L58.6889 244.764ZM65.6185 249.44C65.2413 249.036 64.6085 249.015 64.205 249.392C63.8016 249.77 63.7804 250.402 64.1576 250.806L65.6185 249.44ZM69.828 256.664C70.2192 257.053 70.8523 257.052 71.2422 256.661C71.6321 256.27 71.631 255.637 71.2398 255.247L69.828 256.664ZM77.0701 260.839C76.664 260.464 76.0313 260.49 75.6571 260.896C75.2828 261.302 75.3086 261.935 75.7147 262.309L77.0701 260.839ZM81.8319 267.71C82.2539 268.066 82.8848 268.013 83.2411 267.591C83.5974 267.169 83.5442 266.538 83.1222 266.182L81.8319 267.71ZM89.4079 271.24C88.9692 270.904 88.3416 270.988 88.006 271.426C87.6704 271.865 87.7539 272.493 88.1925 272.828L89.4079 271.24ZM94.8074 277.62C95.2632 277.932 95.8856 277.815 96.1973 277.359C96.5091 276.904 96.3924 276.281 95.9365 275.969L94.8074 277.62ZM102.714 280.323C102.241 280.039 101.626 280.192 101.342 280.665C101.057 281.139 101.21 281.753 101.684 282.038L102.714 280.323ZM108.823 286.026C109.314 286.28 109.917 286.088 110.171 285.597C110.424 285.106 110.232 284.503 109.741 284.25L108.823 286.026ZM117.013 287.692C116.505 287.474 115.917 287.708 115.699 288.215C115.48 288.722 115.714 289.311 116.221 289.529L117.013 287.692ZM123.858 292.485C124.38 292.665 124.949 292.387 125.129 291.865C125.308 291.342 125.031 290.773 124.508 290.594L123.858 292.485ZM132.201 292.901C131.666 292.764 131.121 293.087 130.984 293.622C130.846 294.157 131.169 294.702 131.704 294.839L132.201 292.901ZM139.718 296.542C140.263 296.634 140.779 296.268 140.871 295.723C140.963 295.179 140.596 294.662 140.052 294.57L139.718 296.542ZM148.013 295.569C147.462 295.524 146.98 295.934 146.934 296.484C146.889 297.035 147.299 297.517 147.849 297.563L148.013 295.569ZM155.961 297.853C156.513 297.843 156.953 297.388 156.943 296.836C156.934 296.283 156.478 295.844 155.926 295.854L155.961 297.853ZM163.806 295.299C163.258 295.366 162.867 295.864 162.933 296.412C162.999 296.96 163.497 297.351 164.045 297.285L163.806 295.299ZM172.055 295.955C172.596 295.842 172.942 295.312 172.829 294.771C172.715 294.23 172.185 293.884 171.645 293.998L172.055 295.955ZM179.274 292.097C178.743 292.25 178.436 292.804 178.589 293.334C178.741 293.865 179.295 294.172 179.826 294.02L179.274 292.097ZM187.479 291.557C187.999 291.372 188.271 290.8 188.086 290.28C187.901 289.76 187.329 289.488 186.809 289.673L187.479 291.557ZM194.255 286.793C193.745 287.005 193.504 287.591 193.717 288.101C193.929 288.61 194.515 288.851 195.025 288.639L194.255 286.793ZM202.346 285.38C202.845 285.144 203.059 284.548 202.823 284.049C202.587 283.549 201.991 283.336 201.492 283.571L202.346 285.38ZM208.595 280.036C208.105 280.292 207.916 280.896 208.172 281.385C208.428 281.875 209.032 282.064 209.521 281.809L208.595 280.036ZM216.622 277.931C217.102 277.658 217.27 277.048 216.996 276.568C216.723 276.088 216.113 275.92 215.633 276.193L216.622 277.931ZM222.439 272.174C221.968 272.462 221.819 273.078 222.107 273.549C222.396 274.02 223.011 274.168 223.482 273.88L222.439 272.174ZM230.28 269.587C230.743 269.285 230.873 268.666 230.572 268.203C230.271 267.74 229.651 267.609 229.188 267.911L230.28 269.587ZM235.808 263.474C235.353 263.788 235.239 264.41 235.552 264.865C235.865 265.32 236.488 265.435 236.943 265.121L235.808 263.474ZM243.479 260.504C243.926 260.18 244.027 259.555 243.703 259.108C243.379 258.66 242.754 258.56 242.306 258.884L243.479 260.504ZM248.739 254.119C248.299 254.453 248.212 255.08 248.546 255.52C248.879 255.961 249.506 256.047 249.947 255.714L248.739 254.119ZM256.259 250.832C256.693 250.49 256.767 249.862 256.425 249.428C256.082 248.994 255.454 248.92 255.02 249.262L256.259 250.832ZM261.268 244.236C260.841 244.586 260.779 245.216 261.129 245.644C261.479 246.071 262.109 246.133 262.536 245.783L261.268 244.236ZM268.656 240.677C269.077 240.319 269.129 239.688 268.771 239.267C268.414 238.846 267.783 238.795 267.362 239.152L268.656 240.677ZM273.422 233.921C273.007 234.285 272.966 234.917 273.33 235.332C273.694 235.747 274.326 235.788 274.741 235.424L273.422 233.921ZM280.702 230.112C281.112 229.741 281.143 229.109 280.773 228.699C280.402 228.29 279.77 228.258 279.36 228.629L280.702 230.112ZM285.25 223.219C284.846 223.596 284.823 224.228 285.2 224.632C285.577 225.036 286.209 225.059 286.613 224.682L285.25 223.219ZM292.423 219.191C292.822 218.809 292.835 218.176 292.453 217.777C292.071 217.379 291.438 217.365 291.039 217.747L292.423 219.191ZM296.771 212.179C296.377 212.567 296.372 213.2 296.76 213.593C297.147 213.987 297.78 213.992 298.174 213.605L296.771 212.179ZM303.838 207.956C304.227 207.563 304.224 206.93 303.831 206.542C303.439 206.153 302.805 206.156 302.417 206.549L303.838 207.956ZM308 200.837C307.616 201.235 307.627 201.868 308.025 202.251C308.422 202.635 309.055 202.624 309.439 202.227L308 200.837ZM314.963 196.435C315.341 196.033 315.322 195.4 314.92 195.021C314.518 194.642 313.886 194.661 313.507 195.063L314.963 196.435ZM318.947 189.22C318.573 189.626 318.599 190.259 319.006 190.633C319.412 191.007 320.045 190.98 320.419 190.574L318.947 189.22ZM325.805 184.65C326.174 184.239 326.14 183.607 325.729 183.237C325.319 182.868 324.686 182.902 324.317 183.313L325.805 184.65ZM329.617 177.345C329.253 177.76 329.294 178.392 329.709 178.757C330.124 179.121 330.756 179.08 331.12 178.665L329.617 177.345ZM336.369 172.616C336.729 172.197 336.68 171.566 336.261 171.206C335.842 170.846 335.211 170.895 334.851 171.314L336.369 172.616ZM340.012 165.226C339.658 165.65 339.713 166.28 340.136 166.635C340.56 166.99 341.19 166.934 341.545 166.511L340.012 165.226ZM346.653 160.344C347.003 159.917 346.94 159.287 346.513 158.937C346.085 158.587 345.455 158.65 345.106 159.077L346.653 160.344ZM350.127 152.87C349.782 153.301 349.853 153.93 350.284 154.275C350.715 154.62 351.345 154.55 351.689 154.119L350.127 152.87ZM356.649 147.839C356.988 147.404 356.911 146.775 356.475 146.436C356.04 146.096 355.412 146.174 355.072 146.609L356.649 147.839ZM359.951 140.278C359.616 140.717 359.701 141.345 360.141 141.679C360.58 142.013 361.208 141.928 361.542 141.489L359.951 140.278ZM366.339 135.104C366.668 134.66 366.575 134.034 366.131 133.705C365.688 133.376 365.061 133.469 364.733 133.912L366.339 135.104ZM369.462 127.447C369.139 127.895 369.24 128.52 369.688 128.843C370.136 129.167 370.761 129.065 371.084 128.618L369.462 127.447ZM375.695 122.136C376.012 121.684 375.903 121.06 375.451 120.743C374.999 120.426 374.375 120.535 374.058 120.988L375.695 122.136ZM378.626 114.374C378.315 114.83 378.434 115.452 378.89 115.763C379.347 116.073 379.969 115.955 380.28 115.498L378.626 114.374ZM384.712 108.873C385.015 108.411 384.887 107.791 384.426 107.488C383.965 107.184 383.345 107.312 383.041 107.773L384.712 108.873ZM387.384 101.052C387.088 101.518 387.227 102.136 387.693 102.432C388.159 102.728 388.777 102.589 389.073 102.123L387.384 101.052ZM393.311 95.3052C393.598 94.8335 393.449 94.2182 392.977 93.931C392.505 93.6438 391.89 93.7934 391.603 94.2651L393.311 95.3052ZM395.64 87.4847C395.362 87.9621 395.524 88.5742 396.002 88.8518C396.479 89.1295 397.091 88.9675 397.369 88.4901L395.64 87.4847ZM401.36 81.4417C401.627 80.9579 401.45 80.3497 400.967 80.0834C400.483 79.817 399.875 79.9933 399.608 80.4771L401.36 81.4417ZM403.363 73.4388C403.11 73.9296 403.303 74.5328 403.794 74.7859C404.285 75.0391 404.888 74.8464 405.141 74.3555L403.363 73.4388ZM408.683 67.2161C408.92 66.7174 408.708 66.1208 408.209 65.8836C407.71 65.6465 407.114 65.8586 406.877 66.3573L408.683 67.2161ZM410.146 59.1224C409.929 59.6304 410.165 60.2179 410.673 60.4346C411.181 60.6513 411.769 60.4152 411.985 59.9073L410.146 59.1224ZM414.97 52.3862C415.159 51.8673 414.892 51.2933 414.373 51.1042C413.854 50.9151 413.28 51.1824 413.091 51.7013L414.97 52.3862ZM415.539 44.1613C415.39 44.693 415.7 45.245 416.232 45.3942C416.764 45.5433 417.316 45.2332 417.465 44.7014L415.539 44.1613ZM419.217 36.8168C419.302 36.2711 418.928 35.7601 418.382 35.6756C417.836 35.5911 417.326 35.965 417.241 36.5108L419.217 36.8168ZM417.66 28.7589C417.702 29.3096 418.181 29.7228 418.732 29.6818C419.283 29.6407 419.696 29.161 419.655 28.6102L417.66 28.7589ZM417.697 20.6295C417.507 20.1109 416.932 19.8445 416.414 20.0345C415.895 20.2244 415.629 20.7988 415.819 21.3174L417.697 20.6295ZM412.592 14.4286C412.874 14.9036 413.488 15.0603 413.963 14.7786C414.438 14.4969 414.594 13.8834 414.313 13.4084L412.592 14.4286ZM409.41 7.04538C409.017 6.65682 408.384 6.66 407.996 7.05248C407.607 7.44496 407.61 8.07812 408.003 8.46668L409.41 7.04538ZM401.912 4.11414C402.41 4.35457 403.008 4.1464 403.248 3.64919C403.488 3.15198 403.28 2.55402 402.783 2.31359L401.912 4.11414ZM394.951 0.118732C394.401 0.0643997 393.912 0.465898 393.858 1.0155C393.803 1.56511 394.205 2.0547 394.754 2.10903L394.951 0.118732ZM387.264 2.57412C387.804 2.45785 388.147 1.92591 388.031 1.386C387.915 0.846098 387.383 0.502676 386.843 0.61895L387.264 2.57412ZM379.248 3.32532C378.754 3.57252 378.554 4.17328 378.802 4.66715C379.049 5.16103 379.65 5.361 380.143 5.1138L379.248 3.32532ZM373.733 9.23946C374.165 8.89474 374.235 8.26549 373.89 7.834C373.546 7.40251 372.916 7.33218 372.485 7.6769L373.733 9.23946ZM366.723 13.244C366.362 13.6624 366.409 14.2938 366.827 14.6543C367.246 15.0149 367.877 14.968 368.238 14.5496L366.723 13.244ZM363.756 20.7782C364.038 20.3037 363.883 19.6899 363.409 19.4072C362.934 19.1244 362.32 19.2798 362.038 19.7542L363.756 20.7782ZM358.543 26.9322C358.343 27.4472 358.599 28.0264 359.114 28.2257C359.629 28.425 360.209 28.1691 360.408 27.654L358.543 26.9322ZM358.246 35.0074C358.358 34.4664 358.009 33.9377 357.468 33.8264C356.927 33.7151 356.399 34.0634 356.287 34.6043L358.246 35.0074ZM355.322 42.5539C355.301 43.1057 355.73 43.5707 356.282 43.5925C356.834 43.6142 357.299 43.1845 357.321 42.6326L355.322 42.5539ZM357.627 50.3067C357.562 49.7582 357.065 49.3662 356.516 49.431C355.968 49.4958 355.576 49.993 355.641 50.5415L357.627 50.3067ZM357.158 58.356C357.302 58.8891 357.851 59.2045 358.384 59.0604C358.917 58.9163 359.233 58.3673 359.089 57.8342L357.158 58.356ZM361.594 65.1058C361.38 64.5964 360.794 64.3567 360.285 64.5703C359.775 64.7839 359.536 65.3699 359.749 65.8792L361.594 65.1058ZM363.265 73.0182C363.537 73.4986 364.147 73.6674 364.628 73.3951C365.108 73.1228 365.277 72.5126 365.005 72.0321L363.265 73.0182ZM369.187 78.5738C368.866 78.1242 368.242 78.0198 367.792 78.3405C367.343 78.6613 367.238 79.2858 367.559 79.7354L369.187 78.5738ZM372.426 85.9362C372.786 86.3553 373.417 86.4035 373.837 86.0438C374.256 85.6841 374.304 85.0528 373.944 84.6337L372.426 85.9362ZM379.187 90.2722C378.795 89.8823 378.162 89.8833 377.772 90.2744C377.382 90.6655 377.383 91.2986 377.774 91.6886L379.187 90.2722ZM383.562 97.0703C383.978 97.4327 384.61 97.3888 384.973 96.972C385.335 96.5553 385.291 95.9237 384.874 95.5612L383.562 97.0703ZM390.989 100.557C390.551 100.221 389.923 100.303 389.587 100.74C389.25 101.178 389.332 101.806 389.77 102.143L390.989 100.557ZM396.031 106.703C396.485 107.017 397.108 106.903 397.422 106.449C397.736 105.994 397.622 105.371 397.168 105.058L396.031 106.703ZM403.708 109.351C403.239 109.058 402.622 109.201 402.33 109.669C402.037 110.138 402.18 110.754 402.648 111.047L403.708 109.351ZM409.413 115.078C409.893 115.351 410.504 115.183 410.777 114.703C411.05 114.223 410.882 113.613 410.402 113.339L409.413 115.078ZM417.22 117.053C416.731 116.798 416.127 116.988 415.871 117.477C415.616 117.967 415.806 118.571 416.295 118.826L417.22 117.053ZM423.373 122.368C423.871 122.607 424.468 122.398 424.707 121.9C424.946 121.402 424.737 120.804 424.239 120.565L423.373 122.368ZM431.28 123.818C430.775 123.593 430.184 123.821 429.96 124.325C429.736 124.83 429.963 125.421 430.468 125.645L431.28 123.818ZM437.714 128.746C438.224 128.957 438.809 128.713 439.02 128.203C439.23 127.692 438.987 127.107 438.476 126.897L437.714 128.746ZM445.748 129.788C445.232 129.59 444.654 129.848 444.456 130.364C444.258 130.879 444.516 131.458 445.032 131.655L445.748 129.788ZM452.34 134.363C452.86 134.549 453.432 134.278 453.618 133.758C453.804 133.238 453.534 132.666 453.014 132.48L452.34 134.363ZM460.56 135.089C460.037 134.914 459.47 135.197 459.295 135.721C459.12 136.244 459.403 136.811 459.927 136.986L460.56 135.089ZM467.222 139.345C467.749 139.51 468.31 139.216 468.475 138.689C468.64 138.162 468.347 137.601 467.82 137.436L467.222 139.345ZM475.379 139.727C474.849 139.572 474.294 139.875 474.138 140.405C473.983 140.935 474.286 141.491 474.816 141.646L475.379 139.727ZM482.613 143.824C483.148 143.961 483.693 143.638 483.83 143.103C483.967 142.568 483.645 142.023 483.11 141.886L482.613 143.824ZM490.867 143.676C490.327 143.565 489.798 143.913 489.686 144.454C489.575 144.995 489.923 145.524 490.464 145.635L490.867 143.676ZM498.385 147.086C498.931 147.173 499.444 146.803 499.532 146.257C499.619 145.712 499.249 145.199 498.703 145.111L498.385 147.086ZM506.597 146.22C506.048 146.154 505.55 146.545 505.484 147.093C505.418 147.642 505.808 148.14 506.357 148.206L506.597 146.22ZM514.361 149.027C514.911 149.074 515.395 148.666 515.442 148.115C515.488 147.565 515.08 147.081 514.53 147.034L514.361 149.027ZM522.49 147.581C521.939 147.552 521.468 147.975 521.439 148.527C521.409 149.078 521.833 149.549 522.384 149.578L522.49 147.581ZM530.417 149.888C530.969 149.902 531.428 149.466 531.442 148.913C531.455 148.361 531.019 147.903 530.467 147.889L530.417 149.888ZM538.452 147.984C537.899 147.985 537.452 148.432 537.452 148.985C537.452 149.537 537.9 149.985 538.452 149.984L538.452 147.984ZM546.485 149.891C547.037 149.879 547.474 149.422 547.462 148.869C547.45 148.317 546.992 147.88 546.44 147.892L546.485 149.891ZM554.427 147.635C553.875 147.658 553.447 148.124 553.469 148.676C553.492 149.227 553.958 149.656 554.51 149.633L554.427 147.635ZM562.527 149.232C563.078 149.2 563.499 148.727 563.467 148.176C563.435 147.624 562.962 147.203 562.411 147.235L562.527 149.232ZM570.391 146.714C569.84 146.754 569.425 147.232 569.465 147.783C569.505 148.334 569.984 148.749 570.535 148.709L570.391 146.714ZM578.532 148.083C579.083 148.037 579.491 147.554 579.445 147.003C579.399 146.453 578.916 146.044 578.365 146.09L578.532 148.083ZM586.335 145.383C585.785 145.435 585.381 145.922 585.432 146.472C585.484 147.022 585.971 147.426 586.521 147.375L586.335 145.383ZM594.501 146.601C595.051 146.546 595.451 146.056 595.396 145.507C595.341 144.957 594.851 144.556 594.302 144.611L594.501 146.601ZM602.265 143.793C601.716 143.85 601.318 144.342 601.375 144.892C601.433 145.441 601.925 145.84 602.474 145.782L602.265 143.793ZM610.442 144.934C610.991 144.875 611.389 144.382 611.33 143.833C611.271 143.284 610.778 142.886 610.229 142.945L610.442 144.934ZM618.193 142.088C617.644 142.147 617.246 142.64 617.305 143.189C617.364 143.738 617.857 144.135 618.407 144.076L618.193 142.088ZM626.369 143.228C626.918 143.17 627.317 142.678 627.259 142.128C627.201 141.579 626.709 141.181 626.16 141.239L626.369 143.228ZM634.132 140.418C633.583 140.473 633.182 140.963 633.237 141.513C633.292 142.062 633.782 142.463 634.331 142.408L634.132 140.418ZM642.295 141.639C642.845 141.588 643.25 141.101 643.199 140.551C643.148 140.001 642.661 139.596 642.111 139.647L642.295 141.639ZM650.104 138.949C649.553 138.994 649.144 139.477 649.189 140.027C649.233 140.578 649.716 140.987 650.267 140.942L650.104 138.949ZM658.244 140.345C658.795 140.308 659.212 139.831 659.175 139.28C659.137 138.729 658.661 138.312 658.109 138.35L658.244 140.345ZM666.128 137.878C665.577 137.905 665.151 138.375 665.179 138.926C665.206 139.478 665.675 139.903 666.227 139.876L666.128 137.878ZM674.213 139.567C674.765 139.552 675.201 139.092 675.186 138.54C675.171 137.988 674.711 137.553 674.159 137.568L674.213 139.567ZM682.198 137.457C681.646 137.457 681.198 137.904 681.198 138.456C681.198 139.009 681.645 139.457 682.198 139.457L682.198 137.457ZM690.172 139.589C690.724 139.608 691.187 139.176 691.205 138.624C691.224 138.072 690.792 137.609 690.24 137.59L690.172 139.589ZM698.271 138.021C697.721 137.98 697.241 138.393 697.2 138.944C697.159 139.495 697.572 139.975 698.122 140.016L698.271 138.021ZM706.039 140.797C706.588 140.865 707.087 140.476 707.155 139.928C707.223 139.38 706.834 138.88 706.286 138.812L706.039 140.797ZM714.273 140.038C713.73 139.938 713.208 140.297 713.107 140.84C713.007 141.383 713.366 141.905 713.909 142.005L714.273 140.038ZM721.564 143.637C722.102 143.761 722.639 143.424 722.762 142.886C722.885 142.347 722.548 141.811 722.01 141.688L721.564 143.637ZM729.49 143.465C728.954 143.333 728.412 143.66 728.28 144.197C728.148 144.733 728.475 145.275 729.012 145.407L729.49 143.465ZM736.452 147.309C736.985 147.45 737.533 147.132 737.674 146.598C737.816 146.064 737.498 145.517 736.964 145.375L736.452 147.309ZM744.416 147.421C743.885 147.27 743.332 147.578 743.181 148.11C743.03 148.641 743.338 149.194 743.869 149.345L744.416 147.421ZM751.233 151.513C751.761 151.674 752.32 151.376 752.481 150.847C752.642 150.319 752.344 149.76 751.816 149.599L751.233 151.513ZM759.162 151.915C758.637 151.744 758.073 152.031 757.901 152.556C757.73 153.081 758.017 153.645 758.542 153.817L759.162 151.915ZM765.795 156.263C766.317 156.445 766.887 156.17 767.069 155.648C767.251 155.127 766.975 154.557 766.454 154.375L765.795 156.263ZM773.707 156.993C773.19 156.8 772.614 157.062 772.42 157.58C772.227 158.097 772.49 158.673 773.007 158.866L773.707 156.993ZM780.174 161.636C780.687 161.841 781.269 161.591 781.474 161.079C781.679 160.566 781.429 159.984 780.917 159.779L780.174 161.636ZM788.054 162.735C787.546 162.517 786.958 162.752 786.74 163.26C786.523 163.767 786.758 164.355 787.265 164.573L788.054 162.735ZM794.273 167.689C794.775 167.92 795.369 167.701 795.6 167.199C795.831 166.698 795.612 166.104 795.11 165.872L794.273 167.689ZM802.076 169.206C801.581 168.96 800.981 169.162 800.735 169.656C800.489 170.151 800.691 170.751 801.186 170.997L802.076 169.206ZM807.986 174.513C808.473 174.775 809.079 174.593 809.341 174.106C809.603 173.62 809.421 173.014 808.934 172.752L807.986 174.513ZM815.663 176.53C815.187 176.251 814.574 176.411 814.295 176.887C814.015 177.364 814.175 177.976 814.651 178.256L815.663 176.53ZM821.161 182.256C821.625 182.555 822.244 182.421 822.543 181.957C822.842 181.493 822.709 180.874 822.244 180.575L821.161 182.256ZM828.672 184.946C828.223 184.623 827.598 184.725 827.276 185.174C826.954 185.622 827.056 186.247 827.504 186.569L828.672 184.946ZM833.564 191.206C833.992 191.556 834.622 191.493 834.971 191.065C835.321 190.637 835.258 190.007 834.83 189.658L833.564 191.206ZM840.644 194.796C840.246 194.413 839.613 194.425 839.23 194.823C838.847 195.221 838.859 195.854 839.257 196.237L840.644 194.796ZM844.431 201.765C844.783 202.19 845.414 202.249 845.839 201.896C846.264 201.544 846.323 200.913 845.97 200.488L844.431 201.765ZM850.49 206.92C850.216 206.441 849.605 206.274 849.125 206.548C848.646 206.821 848.479 207.432 848.753 207.912L850.49 206.92ZM851.5 214.739C851.617 215.279 852.15 215.621 852.69 215.503C853.23 215.385 853.572 214.853 853.454 214.313L851.5 214.739ZM853.212 222.423C853.378 221.897 853.086 221.335 852.56 221.168C852.033 221.002 851.471 221.294 851.305 221.82L853.212 222.423ZM847.387 227.706C846.979 228.078 846.948 228.71 847.32 229.119C847.691 229.528 848.324 229.558 848.732 229.186L847.387 227.706ZM841.998 233.485C842.5 233.255 842.721 232.662 842.491 232.16C842.261 231.657 841.668 231.437 841.166 231.666L841.998 233.485ZM833.846 234.193C833.31 234.324 832.982 234.866 833.113 235.402C833.245 235.939 833.786 236.267 834.323 236.135L833.846 234.193ZM826.4 237.006C826.952 237.038 827.424 236.617 827.456 236.065C827.488 235.514 827.067 235.041 826.516 235.009L826.4 237.006ZM819.759 232.646C819.327 232.302 818.698 232.374 818.354 232.806C818.011 233.238 818.082 233.867 818.515 234.211L819.759 232.646ZM813.948 227.305C814.123 227.829 814.69 228.112 815.214 227.937C815.737 227.762 816.02 227.195 815.845 226.672L813.948 227.305ZM814.618 219.257C814.595 218.705 814.129 218.276 813.577 218.299C813.025 218.322 812.596 218.787 812.619 219.339L814.618 219.257ZM812.934 211.355C812.875 211.904 813.273 212.397 813.822 212.456C814.371 212.514 814.864 212.117 814.923 211.568L812.934 211.355ZM816.133 203.885C816.243 203.343 815.893 202.816 815.351 202.706C814.81 202.597 814.282 202.947 814.173 203.488L816.133 203.885ZM816.008 195.782C815.863 196.315 816.178 196.864 816.711 197.009C817.244 197.153 817.793 196.838 817.938 196.305L816.008 195.782ZM820.172 188.838C820.343 188.312 820.056 187.748 819.531 187.577C819.005 187.406 818.441 187.693 818.27 188.219L820.172 188.838ZM820.867 180.775C820.675 181.293 820.939 181.869 821.457 182.061C821.974 182.253 822.55 181.989 822.742 181.472L820.867 180.775ZM825.593 174.196C825.803 173.685 825.559 173.101 825.048 172.891C824.538 172.681 823.953 172.924 823.743 173.435L825.593 174.196ZM826.861 166.188C826.635 166.692 826.86 167.284 827.364 167.51C827.868 167.736 828.459 167.511 828.685 167.007L826.861 166.188ZM831.994 159.904C832.234 159.407 832.026 158.809 831.529 158.569C831.031 158.329 830.433 158.537 830.193 159.034L831.994 159.904ZM833.721 151.978C833.467 152.468 833.66 153.072 834.15 153.325C834.641 153.579 835.244 153.386 835.498 152.896L833.721 151.978ZM839.173 146.004C839.439 145.52 839.262 144.912 838.778 144.645C838.294 144.379 837.686 144.556 837.42 145.04L839.173 146.004ZM841.304 138.187C841.026 138.664 841.187 139.276 841.664 139.555C842.141 139.833 842.753 139.672 843.031 139.195L841.304 138.187ZM847.066 132.485C847.356 132.016 847.211 131.399 846.742 131.109C846.272 130.818 845.656 130.963 845.365 131.433L847.066 132.485ZM849.599 124.793C849.295 125.255 849.424 125.875 849.885 126.178C850.347 126.481 850.967 126.353 851.27 125.891L849.599 124.793ZM855.651 119.419C855.968 118.966 855.857 118.342 855.404 118.026C854.951 117.71 854.327 117.821 854.011 118.274L855.651 119.419ZM858.625 111.869C858.296 112.312 858.388 112.939 858.831 113.269C859.274 113.598 859.9 113.506 860.23 113.063L858.625 111.869ZM865.006 106.862C865.35 106.431 865.279 105.801 864.848 105.457C864.416 105.113 863.787 105.183 863.442 105.615L865.006 106.862ZM868.477 99.5396C868.116 99.958 868.163 100.589 868.581 100.95C869 101.311 869.631 101.264 869.992 100.845L868.477 99.5396ZM875.209 95.0489C875.588 94.6469 875.569 94.014 875.167 93.6353C874.765 93.2566 874.132 93.2755 873.753 93.6775L875.209 95.0489ZM879.309 88.0747C878.909 88.4561 878.895 89.0891 879.276 89.4886C879.658 89.888 880.291 89.9026 880.69 89.5213L879.309 88.0747ZM886.48 84.3337C886.904 83.9795 886.96 83.3489 886.606 82.9251C886.252 82.5014 885.621 82.445 885.197 82.7992L886.48 84.3337ZM891.492 77.9629C891.039 78.2792 890.929 78.9026 891.245 79.3554C891.561 79.8081 892.185 79.9187 892.638 79.6023L891.492 77.9629ZM899.225 75.529C899.712 75.2687 899.896 74.6628 899.636 74.1757C899.376 73.6886 898.77 73.5047 898.283 73.765L899.225 75.529ZM905.644 70.5684C905.12 70.7407 904.834 71.3057 905.006 71.8305C905.179 72.3552 905.744 72.6408 906.268 72.4685L905.644 70.5684ZM913.664 70.9911C914.215 70.958 914.635 70.4843 914.602 69.933C914.569 69.3818 914.095 68.9616 913.544 68.9947L913.664 70.9911ZM921.627 69.8813C921.097 69.7239 920.54 70.0254 920.383 70.5547C920.226 71.0841 920.527 71.6409 921.056 71.7983L921.627 69.8813ZM927.814 75.1323C928.275 75.4365 928.895 75.3094 929.199 74.8485C929.504 74.3875 929.376 73.7672 928.915 73.463L927.814 75.1323ZM935.445 78.4746C935.027 78.1141 934.395 78.1609 934.035 78.5792C933.674 78.9975 933.721 79.629 934.139 79.9895L935.445 78.4746ZM939.99 85.4294C940.382 85.8181 941.015 85.8151 941.404 85.4227C941.792 85.0304 941.789 84.3972 941.397 84.0085L939.99 85.4294ZM947 89.8208C946.625 89.4156 945.992 89.3914 945.587 89.7666C945.182 90.1419 945.158 90.7746 945.533 91.1798L947 89.8208ZM950.889 97.145C951.253 97.5609 951.885 97.6034 952.3 97.2401C952.716 96.8767 952.759 96.2449 952.396 95.829L950.889 97.145ZM957.667 101.995C957.312 101.572 956.681 101.516 956.258 101.871C955.835 102.226 955.779 102.857 956.134 103.28L957.667 101.995ZM961.303 109.543C961.651 109.971 962.281 110.036 962.71 109.687C963.138 109.339 963.203 108.709 962.854 108.28L961.303 109.543ZM967.863 114.505C967.519 114.073 966.89 114.002 966.458 114.346C966.026 114.69 965.955 115.32 966.299 115.752L967.863 114.505ZM971.299 122.08C971.64 122.514 972.269 122.59 972.703 122.249C973.138 121.908 973.214 121.28 972.873 120.845L971.299 122.08ZM977.864 127.242C977.525 126.806 976.897 126.727 976.461 127.066C976.024 127.404 975.945 128.033 976.284 128.469L977.864 127.242ZM981.182 134.801C981.519 135.238 982.147 135.319 982.584 134.982C983.022 134.644 983.103 134.016 982.766 133.579L981.182 134.801ZM987.707 139.997C987.37 139.56 986.742 139.477 986.305 139.814C985.867 140.151 985.785 140.779 986.121 141.216L987.707 139.997ZM991.021 147.592C991.357 148.03 991.985 148.112 992.423 147.775C992.861 147.439 992.943 146.811 992.607 146.373L991.021 147.592ZM997.523 152.765C997.186 152.328 996.558 152.246 996.121 152.583C995.683 152.92 995.602 153.548 995.939 153.986L997.523 152.765ZM1000.87 160.38C1001.21 160.816 1001.84 160.897 1002.28 160.559C1002.71 160.221 1002.79 159.593 1002.46 159.156L1000.87 160.38ZM1007.39 165.511C1007.05 165.075 1006.42 164.997 1005.98 165.336C1005.55 165.676 1005.47 166.304 1005.81 166.74L1007.39 165.511ZM1010.79 173.112C1011.13 173.546 1011.76 173.622 1012.2 173.28C1012.63 172.939 1012.71 172.311 1012.37 171.876L1010.79 173.112ZM1017.35 178.184C1017 177.751 1016.37 177.679 1015.94 178.023C1015.51 178.366 1015.44 178.995 1015.78 179.428L1017.35 178.184ZM1020.82 185.742C1021.17 186.172 1021.8 186.24 1022.23 185.894C1022.66 185.548 1022.73 184.919 1022.38 184.488L1020.82 185.742ZM1027.45 190.741C1027.1 190.313 1026.47 190.249 1026.04 190.598C1025.61 190.947 1025.55 191.577 1025.9 192.005L1027.45 190.741ZM1031.03 198.24C1031.38 198.665 1032.01 198.724 1032.44 198.371C1032.86 198.019 1032.92 197.388 1032.57 196.963L1031.03 198.24ZM1037.74 203.136C1037.38 202.714 1036.75 202.661 1036.33 203.018C1035.91 203.375 1035.85 204.005 1036.21 204.427L1037.74 203.136ZM1041.45 210.565C1041.82 210.983 1042.45 211.029 1042.87 210.668C1043.28 210.307 1043.33 209.676 1042.97 209.258L1041.45 210.565ZM1048.26 215.318C1047.9 214.904 1047.27 214.865 1046.85 215.231C1046.44 215.597 1046.4 216.229 1046.77 216.643L1048.26 215.318ZM1052.16 222.661C1052.53 223.07 1053.16 223.1 1053.57 222.729C1053.98 222.357 1054.01 221.725 1053.64 221.316L1052.16 222.661ZM1059.09 227.224C1058.71 226.82 1058.08 226.799 1057.67 227.177C1057.27 227.554 1057.25 228.187 1057.63 228.59L1059.09 227.224ZM1063.21 234.458C1063.59 234.855 1064.22 234.865 1064.62 234.481C1065.02 234.098 1065.03 233.464 1064.64 233.067L1063.21 234.458ZM1070.26 238.773C1069.87 238.383 1069.24 238.384 1068.85 238.775C1068.46 239.166 1068.46 239.799 1068.85 240.189L1070.26 238.773ZM1074.66 245.864C1075.06 246.246 1075.69 246.232 1076.07 245.833C1076.45 245.433 1076.44 244.8 1076.04 244.419L1074.66 245.864ZM1081.9 249.891C1081.49 249.518 1080.86 249.547 1080.48 249.955C1080.11 250.363 1080.14 250.995 1080.55 251.368L1081.9 249.891ZM1086.6 256.754C1087.02 257.115 1087.65 257.07 1088.01 256.652C1088.38 256.235 1088.33 255.603 1087.91 255.242L1086.6 256.754ZM1094.07 260.413C1093.64 260.064 1093.01 260.128 1092.66 260.556C1092.31 260.985 1092.37 261.614 1092.8 261.963L1094.07 260.413ZM1099.13 266.946C1099.57 267.28 1100.2 267.195 1100.53 266.755C1100.87 266.315 1100.78 265.688 1100.34 265.354L1099.13 266.946ZM1106.86 270.112C1106.4 269.795 1105.78 269.905 1105.46 270.358C1105.15 270.81 1105.26 271.434 1105.71 271.75L1106.86 270.112ZM1112.43 276.239C1112.9 276.535 1113.52 276.397 1113.81 275.931C1114.11 275.464 1113.97 274.846 1113.51 274.55L1112.43 276.239ZM1120.36 278.66C1119.88 278.389 1119.27 278.559 1119 279.04C1118.72 279.521 1118.89 280.131 1119.38 280.402L1120.36 278.66ZM1126.6 284.196C1127.09 284.438 1127.69 284.231 1127.93 283.734C1128.17 283.238 1127.97 282.639 1127.47 282.398L1126.6 284.196ZM1134.76 285.635C1134.24 285.429 1133.66 285.677 1133.46 286.19C1133.25 286.703 1133.5 287.285 1134.01 287.491L1134.76 285.635ZM1141.64 290.203C1142.16 290.366 1142.72 290.07 1142.89 289.542C1143.05 289.015 1142.76 288.455 1142.23 288.292L1141.64 290.203ZM1149.97 290.291C1149.43 290.179 1148.9 290.527 1148.79 291.068C1148.68 291.609 1149.02 292.138 1149.57 292.25L1149.97 290.291ZM1157.64 293.471C1158.19 293.523 1158.67 293.119 1158.73 292.57C1158.78 292.02 1158.37 291.532 1157.83 291.48L1157.64 293.471ZM1165.74 291.76C1165.18 291.774 1164.75 292.233 1164.76 292.785C1164.78 293.337 1165.23 293.774 1165.79 293.76L1165.74 291.76ZM1173.93 293.032C1174.48 292.948 1174.85 292.437 1174.77 291.891C1174.68 291.346 1174.17 290.971 1173.63 291.056L1173.93 293.032ZM1181.36 289.338C1180.83 289.493 1180.53 290.048 1180.68 290.578C1180.84 291.108 1181.39 291.413 1181.92 291.259L1181.36 289.338ZM1189.57 288.502C1190.08 288.283 1190.31 287.694 1190.09 287.187C1189.88 286.68 1189.29 286.446 1188.78 286.665L1189.57 288.502ZM1195.85 283.11C1195.37 283.386 1195.21 283.997 1195.49 284.476C1195.76 284.954 1196.37 285.119 1196.85 284.844L1195.85 283.11ZM1203.77 280.36C1204.22 280.037 1204.32 279.411 1203.99 278.964C1203.67 278.516 1203.04 278.416 1202.6 278.739L1203.77 280.36ZM1208.76 273.85C1208.34 274.211 1208.29 274.843 1208.65 275.26C1209.02 275.678 1209.65 275.723 1210.07 275.361L1208.76 273.85ZM1216.12 269.712C1216.52 269.324 1216.52 268.691 1216.13 268.298C1215.75 267.904 1215.11 267.899 1214.72 268.286L1216.12 269.712ZM1220.38 262.477C1220 262.881 1220.02 263.514 1220.43 263.891C1220.83 264.268 1221.46 264.247 1221.84 263.843L1220.38 262.477ZM1227.3 257.773C1227.66 257.356 1227.61 256.724 1227.2 256.363C1226.78 256.001 1226.15 256.047 1225.79 256.464L1227.3 257.773ZM1230.99 250.235C1230.65 250.665 1230.71 251.295 1231.14 251.642C1231.57 251.988 1232.2 251.921 1232.55 251.492L1230.99 250.235ZM1237.58 245.061C1237.91 244.62 1237.82 243.993 1237.38 243.66C1236.94 243.326 1236.31 243.413 1235.98 243.853L1237.58 245.061ZM1240.79 237.318C1240.47 237.767 1240.57 238.392 1241.02 238.713C1241.47 239.034 1242.09 238.93 1242.41 238.481L1240.79 237.318ZM1247.08 231.769C1247.39 231.311 1247.28 230.69 1246.82 230.38C1246.36 230.07 1245.74 230.189 1245.43 230.646L1247.08 231.769ZM1249.9 223.886C1249.6 224.349 1249.74 224.969 1250.2 225.268C1250.66 225.568 1251.28 225.435 1251.58 224.971L1249.9 223.886ZM1255.95 218.062C1256.24 217.592 1256.1 216.976 1255.63 216.685C1255.16 216.394 1254.54 216.539 1254.25 217.008L1255.95 218.062ZM1258.47 210.076C1258.18 210.55 1258.34 211.164 1258.81 211.447C1259.29 211.73 1259.9 211.575 1260.18 211.101L1258.47 210.076ZM1264.31 204.062C1264.59 203.584 1264.43 202.972 1263.95 202.696C1263.47 202.419 1262.86 202.583 1262.58 203.061L1264.31 204.062ZM1266.61 195.998C1266.33 196.479 1266.51 197.089 1266.99 197.359C1267.47 197.63 1268.08 197.459 1268.35 196.977L1266.61 195.998ZM1272.31 189.851C1272.57 189.367 1272.4 188.759 1271.91 188.493C1271.43 188.227 1270.82 188.404 1270.55 188.888L1272.31 189.851ZM1274.44 181.74C1274.18 182.226 1274.36 182.833 1274.85 183.095C1275.33 183.357 1275.94 183.175 1276.2 182.689L1274.44 181.74ZM1280.05 175.508C1280.31 175.02 1280.12 174.415 1279.64 174.155C1279.15 173.896 1278.54 174.081 1278.28 174.568L1280.05 175.508ZM1282.09 167.376C1281.83 167.865 1282.02 168.47 1282.51 168.728C1283 168.985 1283.6 168.798 1283.86 168.31L1282.09 167.376ZM1287.66 161.102C1287.91 160.614 1287.73 160.009 1287.24 159.752C1286.75 159.495 1286.14 159.683 1285.89 160.171L1287.66 161.102ZM1289.68 152.966C1289.42 153.454 1289.61 154.059 1290.1 154.317C1290.59 154.574 1291.19 154.386 1291.45 153.898L1289.68 152.966ZM1295.25 146.7C1295.51 146.212 1295.32 145.606 1294.83 145.348C1294.35 145.089 1293.74 145.275 1293.48 145.763L1295.25 146.7ZM1297.32 138.57C1297.05 139.057 1297.24 139.663 1297.72 139.924C1298.21 140.185 1298.82 140.002 1299.08 139.515L1297.32 138.57ZM1302.94 132.366C1303.21 131.881 1303.03 131.274 1302.54 131.009C1302.06 130.745 1301.45 130.924 1301.19 131.409L1302.94 132.366ZM1305.13 124.257C1304.86 124.74 1305.03 125.349 1305.51 125.618C1305.99 125.887 1306.6 125.713 1306.87 125.231L1305.13 124.257ZM1310.86 118.168C1311.14 117.689 1310.97 117.078 1310.49 116.804C1310.01 116.529 1309.4 116.695 1309.13 117.174L1310.86 118.168ZM1313.24 110.108C1312.96 110.583 1313.11 111.197 1313.59 111.478C1314.06 111.759 1314.68 111.602 1314.96 111.127L1313.24 110.108ZM1319.15 104.174C1319.44 103.704 1319.3 103.088 1318.83 102.799C1318.35 102.509 1317.74 102.656 1317.45 103.126L1319.15 104.174ZM1321.79 96.2211C1321.49 96.6855 1321.63 97.3043 1322.09 97.6031C1322.56 97.902 1323.18 97.7677 1323.47 97.3033L1321.79 96.2211ZM1327.95 90.5153C1328.26 90.058 1328.14 89.4362 1327.69 89.1266C1327.23 88.8169 1326.61 88.9366 1326.3 89.3939L1327.95 90.5153ZM1330.95 82.7147C1330.63 83.1635 1330.73 83.7882 1331.18 84.1101C1331.63 84.432 1332.25 84.3291 1332.57 83.8804L1330.95 82.7147ZM1337.42 77.3426C1337.75 76.9041 1337.67 76.2764 1337.23 75.9407C1336.79 75.605 1336.16 75.6884 1335.83 76.1269L1337.42 77.3426ZM1340.91 69.7236C1340.56 70.1501 1340.62 70.7803 1341.04 71.1312C1341.47 71.4822 1342.1 71.421 1342.45 70.9946L1340.91 69.7236ZM1347.71 64.8561C1348.08 64.444 1348.04 63.8118 1347.63 63.4442C1347.21 63.0765 1346.58 63.1125 1346.22 63.5246L1347.71 64.8561ZM1351.81 57.5228C1351.43 57.918 1351.43 58.5511 1351.83 58.9369C1352.22 59.3227 1352.86 59.3151 1353.24 58.92L1351.81 57.5228ZM1359.03 53.2794C1359.43 52.904 1359.46 52.2713 1359.08 51.8662C1358.71 51.4611 1358.07 51.4371 1357.67 51.8125L1359.03 53.2794ZM1363.82 46.4121C1363.4 46.7645 1363.34 47.3949 1363.69 47.8201C1364.04 48.2453 1364.67 48.3043 1365.1 47.9518L1363.82 46.4121ZM1371.47 42.9798C1371.92 42.6537 1372.02 42.028 1371.69 41.5823C1371.37 41.1366 1370.74 41.0396 1370.29 41.3658L1371.47 42.9798ZM1377.06 36.7419C1376.59 37.0383 1376.46 37.6564 1376.75 38.1224C1377.05 38.5884 1377.67 38.7258 1378.13 38.4293L1377.06 36.7419ZM1385.09 34.332C1385.57 34.0685 1385.75 33.4613 1385.49 32.976C1385.23 32.4907 1384.62 32.3109 1384.13 32.5745L1385.09 34.332ZM1391.47 28.9234C1390.97 29.1514 1390.74 29.7441 1390.97 30.2471C1391.2 30.7501 1391.79 30.973 1392.3 30.7449L1391.47 28.9234ZM1399.76 27.6878C1400.27 27.4974 1400.54 26.9227 1400.35 26.4043C1400.16 25.8859 1399.58 25.6201 1399.07 25.8106L1399.76 27.6878ZM1406.89 23.2603C1406.36 23.4121 1406.05 23.9656 1406.2 24.4966C1406.35 25.0276 1406.9 25.335 1407.44 25.1833L1406.89 23.2603ZM1415.22 23.2581C1415.76 23.1448 1416.11 22.6148 1416 22.0743C1415.88 21.5337 1415.35 21.1874 1414.81 21.3007L1415.22 23.2581ZM1422.93 19.8955C1422.38 19.9708 1422 20.4754 1422.08 21.0225C1422.15 21.5697 1422.66 21.9521 1423.2 21.8768L1422.93 19.8955ZM1431.21 21.0444C1431.76 21.0052 1432.17 20.5268 1432.13 19.9759C1432.09 19.425 1431.62 19.0103 1431.06 19.0495L1431.21 21.0444ZM1439.23 18.7224C1438.68 18.7278 1438.24 19.1798 1438.24 19.732C1438.25 20.2843 1438.7 20.7277 1439.25 20.7223L1439.23 18.7224ZM1447.39 20.8808C1447.94 20.9072 1448.41 20.4813 1448.43 19.9297C1448.46 19.378 1448.04 18.9094 1447.48 18.8831L1447.39 20.8808ZM1455.57 19.4832C1455.02 19.4282 1454.53 19.8291 1454.47 20.3787C1454.42 20.9282 1454.82 21.4183 1455.37 21.4732L1455.57 19.4832ZM1463.51 22.4909C1464.05 22.5726 1464.56 22.1959 1464.64 21.6497C1464.72 21.1035 1464.35 20.5945 1463.8 20.5129L1463.51 22.4909ZM1471.74 21.876C1471.19 21.771 1470.67 22.1254 1470.56 22.6676C1470.46 23.2098 1470.81 23.7345 1471.35 23.8395L1471.74 21.876ZM1479.39 25.5675C1479.93 25.6943 1480.46 25.3614 1480.59 24.8239C1480.72 24.2863 1480.39 23.7478 1479.85 23.6209L1479.39 25.5675ZM1487.65 25.6108C1487.11 25.4649 1486.56 25.7784 1486.42 26.3111C1486.27 26.8437 1486.59 27.3938 1487.12 27.5398L1487.65 25.6108ZM1494.96 29.8327C1495.49 29.9963 1496.05 29.7013 1496.21 29.1738C1496.38 28.6463 1496.08 28.0861 1495.56 27.9225L1494.96 29.8327ZM1503.28 30.4482C1502.76 30.2689 1502.19 30.5469 1502.01 31.0693C1501.83 31.5916 1502.11 32.1605 1502.63 32.3398L1503.28 30.4482ZM1510.23 35.069C1510.75 35.2626 1511.33 35.0003 1511.52 34.483C1511.71 33.9658 1511.45 33.3895 1510.94 33.1959L1510.23 35.069ZM1518.68 36.2107C1518.17 36.0038 1517.58 36.2513 1517.38 36.7633C1517.17 37.2754 1517.42 37.8582 1517.93 38.0651L1518.68 36.2107ZM1525.26 41.1232C1525.76 41.3416 1526.35 41.1075 1526.57 40.6002C1526.79 40.093 1526.55 39.5047 1526.05 39.2863L1525.26 41.1232ZM1533.59 42.6318C1533.09 42.4025 1532.49 42.6238 1532.26 43.1263C1532.03 43.6287 1532.26 44.2219 1532.76 44.4512L1533.59 42.6318ZM0.233979 161.955C0.997253 162.865 1.80828 163.906 2.66792 165.07L4.27662 163.881C3.39956 162.694 2.56257 161.619 1.76602 160.67L0.233979 161.955ZM7.26223 171.698C8.65232 173.795 10.128 176.081 11.691 178.527L13.3765 177.451C11.8108 175 10.3283 172.704 8.92923 170.593L7.26223 171.698ZM16.0206 185.342C17.4208 187.55 18.8789 189.847 20.3948 192.217L22.0796 191.14C20.5661 188.773 19.1097 186.479 17.7097 184.271L16.0206 185.342ZM24.794 199.035C26.2394 201.253 27.731 203.516 29.2689 205.814L30.9311 204.702C29.3983 202.412 27.9112 200.155 26.4695 197.943L24.794 199.035ZM33.8439 212.543C35.3659 214.745 36.9286 216.967 38.5322 219.201L40.157 218.035C38.5608 215.811 37.0049 213.599 35.4891 211.406L33.8439 212.543ZM43.3476 225.77C44.9601 227.922 46.6104 230.077 48.2987 232.226L49.8714 230.991C48.1932 228.855 46.5522 226.712 44.9483 224.571L43.3476 225.77ZM53.4073 238.564C55.1312 240.646 56.8917 242.715 58.6889 244.764L60.1924 243.445C58.4085 241.412 56.6604 239.357 54.9479 237.288L53.4073 238.564ZM64.1576 250.806C66.0113 252.788 67.9014 254.743 69.828 256.664L71.2398 255.247C69.3308 253.344 67.457 251.406 65.6185 249.44L64.1576 250.806ZM75.7147 262.309C77.7169 264.154 79.7559 265.957 81.8319 267.71L83.1222 266.182C81.0694 264.449 79.052 262.665 77.0701 260.839L75.7147 262.309ZM88.1925 272.828C90.3595 274.486 92.5644 276.086 94.8074 277.62L95.9365 275.969C93.7242 274.456 91.548 272.877 89.4079 271.24L88.1925 272.828ZM101.684 282.038C104.024 283.445 106.404 284.777 108.823 286.026L109.741 284.25C107.362 283.02 105.02 281.709 102.714 280.323L101.684 282.038ZM116.221 289.529C118.727 290.608 121.273 291.596 123.858 292.485L124.508 290.594C121.972 289.722 119.474 288.752 117.013 287.692L116.221 289.529ZM131.704 294.839C134.336 295.514 137.008 296.084 139.718 296.542L140.052 294.57C137.397 294.122 134.78 293.563 132.201 292.901L131.704 294.839ZM147.849 297.563C149.21 297.675 150.581 297.758 151.961 297.812L152.039 295.813C150.688 295.761 149.346 295.679 148.013 295.569L147.849 297.563ZM151.961 297.812C153.283 297.863 154.617 297.877 155.961 297.853L155.926 295.854C154.618 295.877 153.322 295.863 152.039 295.813L151.961 297.812ZM164.045 297.285C166.681 296.968 169.352 296.522 172.055 295.955L171.645 293.998C168.994 294.554 166.38 294.989 163.806 295.299L164.045 297.285ZM179.826 294.02C182.353 293.294 184.905 292.472 187.479 291.557L186.809 289.673C184.272 290.575 181.76 291.384 179.274 292.097L179.826 294.02ZM195.025 288.639C197.45 287.627 199.891 286.539 202.346 285.38L201.492 283.571C199.063 284.719 196.65 285.794 194.255 286.793L195.025 288.639ZM209.521 281.809C211.878 280.577 214.246 279.284 216.622 277.931L215.633 276.193C213.276 277.534 210.93 278.816 208.595 280.036L209.521 281.809ZM223.482 273.88C225.742 272.498 228.009 271.066 230.28 269.587L229.188 267.911C226.932 269.38 224.682 270.802 222.439 272.174L223.482 273.88ZM236.943 265.121C239.119 263.622 241.298 262.082 243.479 260.504L242.306 258.884C240.138 260.454 237.971 261.984 235.808 263.474L236.943 265.121ZM249.947 255.714C252.051 254.12 254.156 252.492 256.259 250.832L255.02 249.262C252.927 250.914 250.833 252.534 248.739 254.119L249.947 255.714ZM262.536 245.783C264.579 244.109 266.619 242.406 268.656 240.677L267.362 239.152C265.333 240.874 263.302 242.569 261.268 244.236L262.536 245.783ZM274.741 235.424C276.733 233.676 278.72 231.905 280.702 230.112L279.36 228.629C277.386 230.415 275.406 232.18 273.422 233.921L274.741 235.424ZM286.613 224.682C288.557 222.871 290.494 221.04 292.423 219.191L291.039 217.747C289.117 219.59 287.186 221.414 285.25 223.219L286.613 224.682ZM298.174 213.605C300.071 211.737 301.96 209.853 303.838 207.956L302.417 206.549C300.544 208.44 298.662 210.318 296.771 212.179L298.174 213.605ZM309.439 202.227C311.291 200.308 313.133 198.377 314.963 196.435L313.507 195.063C311.683 196.999 309.847 198.925 308 200.837L309.439 202.227ZM320.419 190.574C322.227 188.608 324.023 186.633 325.805 184.65L324.317 183.313C322.541 185.29 320.75 187.26 318.947 189.22L320.419 190.574ZM331.12 178.665C332.886 176.654 334.635 174.637 336.369 172.616L334.851 171.314C333.122 173.329 331.377 175.34 329.617 177.345L331.12 178.665ZM341.545 166.511C343.266 164.457 344.969 162.401 346.653 160.344L345.106 159.077C343.426 161.128 341.728 163.179 340.012 165.226L341.545 166.511ZM351.689 154.119C353.364 152.024 355.017 149.93 356.649 147.839L355.072 146.609C353.445 148.694 351.797 150.781 350.127 152.87L351.689 154.119ZM361.542 141.489C363.166 139.355 364.765 137.226 366.339 135.104L364.733 133.912C363.164 136.028 361.57 138.15 359.951 140.278L361.542 141.489ZM371.084 128.618C372.65 126.447 374.188 124.286 375.695 122.136L374.058 120.988C372.556 123.13 371.023 125.284 369.462 127.447L371.084 128.618ZM380.28 115.498C381.792 113.274 383.27 111.064 384.712 108.873L383.041 107.773C381.605 109.956 380.133 112.157 378.626 114.374L380.28 115.498ZM389.073 102.123C390.53 99.8263 391.943 97.5527 393.311 95.3052L391.603 94.2651C390.241 96.5019 388.834 98.7651 387.384 101.052L389.073 102.123ZM397.369 88.4901C398.756 86.1048 400.087 83.754 401.36 81.4417L399.608 80.4771C398.343 82.7751 397.019 85.1123 395.64 87.4847L397.369 88.4901ZM405.141 74.3555C406.395 71.9237 407.577 69.5422 408.683 67.2161L406.877 66.3573C405.781 68.6626 404.608 71.0247 403.363 73.4388L405.141 74.3555ZM411.985 59.9073C413.092 57.3137 414.089 54.8038 414.97 52.3862L413.091 51.7013C412.223 54.0818 411.24 56.5582 410.146 59.1224L411.985 59.9073ZM417.465 44.7014C418.248 41.9098 418.837 39.2754 419.217 36.8168L417.241 36.5108C416.875 38.8766 416.305 41.4319 415.539 44.1613L417.465 44.7014ZM419.655 28.6102C419.547 27.1553 419.319 25.7947 418.962 24.5393L417.038 25.086C417.353 26.1924 417.56 27.4173 417.66 28.7589L419.655 28.6102ZM418.962 24.5393C418.574 23.1748 418.152 21.872 417.697 20.6295L415.819 21.3174C416.256 22.5113 416.663 23.7669 417.038 25.086L418.962 24.5393ZM414.313 13.4084C412.842 10.9292 411.196 8.81394 409.41 7.04538L408.003 8.46668C409.658 10.1059 411.202 12.0837 412.592 14.4286L414.313 13.4084ZM402.783 2.31359C400.276 1.10141 397.64 0.384586 394.951 0.118732L394.754 2.10903C397.218 2.3526 399.625 3.00804 401.912 4.11414L402.783 2.31359ZM386.843 0.61895C384.27 1.17302 381.719 2.08882 379.248 3.32532L380.143 5.1138C382.475 3.9467 384.868 3.09012 387.264 2.57412L386.843 0.61895ZM372.485 7.6769C370.442 9.30919 368.507 11.1739 366.723 13.244L368.238 14.5496C369.943 12.5711 371.789 10.7928 373.733 9.23946L372.485 7.6769ZM362.038 19.7542C360.699 22.0005 359.523 24.4 358.543 26.9322L360.408 27.654C361.347 25.2276 362.474 22.929 363.756 20.7782L362.038 19.7542ZM356.287 34.6043C355.761 37.1637 355.43 39.819 355.322 42.5539L357.321 42.6326C357.424 40.0079 357.741 37.461 358.246 35.0074L356.287 34.6043ZM355.641 50.5415C355.943 53.1006 356.443 55.7094 357.158 58.356L359.089 57.8342C358.399 55.2808 357.918 52.768 357.627 50.3067L355.641 50.5415ZM359.749 65.8792C360.74 68.2416 361.908 70.6237 363.265 73.0182L365.005 72.0321C363.686 69.7046 362.553 67.3933 361.594 65.1058L359.749 65.8792ZM367.559 79.7354C369.032 81.8002 370.652 83.8688 372.426 85.9362L373.944 84.6337C372.207 82.61 370.624 80.5884 369.187 78.5738L367.559 79.7354ZM377.774 91.6886C379.579 93.4876 381.506 95.2825 383.562 97.0703L384.874 95.5612C382.852 93.8022 380.958 92.0381 379.187 90.2722L377.774 91.6886ZM389.77 102.143C391.757 103.671 393.843 105.192 396.031 106.703L397.168 105.058C395.007 103.565 392.948 102.064 390.989 100.557L389.77 102.143ZM402.648 111.047C404.816 112.4 407.07 113.744 409.413 115.078L410.402 113.339C408.082 112.019 405.851 110.689 403.708 109.351L402.648 111.047ZM416.295 118.826C418.578 120.017 420.937 121.198 423.373 122.368L424.239 120.565C421.822 119.405 419.483 118.234 417.22 117.053L416.295 118.826ZM430.468 125.645C432.817 126.689 435.232 127.723 437.714 128.746L438.476 126.897C436.011 125.881 433.612 124.854 431.28 123.818L430.468 125.645ZM445.032 131.655C447.411 132.568 449.846 133.47 452.34 134.363L453.014 132.48C450.534 131.592 448.112 130.695 445.748 129.788L445.032 131.655ZM459.927 136.986C462.309 137.781 464.741 138.568 467.222 139.345L467.82 137.436C465.35 136.663 462.931 135.88 460.56 135.089L459.927 136.986ZM474.816 141.646C476.107 142.025 477.411 142.401 478.727 142.775L479.273 140.85C477.962 140.479 476.664 140.104 475.379 139.727L474.816 141.646ZM478.727 142.775C480.016 143.14 481.312 143.49 482.613 143.824L483.11 141.886C481.825 141.557 480.546 141.212 479.273 140.85L478.727 142.775ZM490.464 145.635C493.084 146.175 495.725 146.657 498.385 147.086L498.703 145.111C496.07 144.687 493.458 144.21 490.867 143.676L490.464 145.635ZM506.357 148.206C509.009 148.527 511.677 148.799 514.361 149.027L514.53 147.034C511.869 146.808 509.224 146.538 506.597 146.22L506.357 148.206ZM522.384 149.578C525.05 149.72 527.729 149.822 530.417 149.888L530.467 147.889C527.796 147.823 525.137 147.722 522.49 147.581L522.384 149.578ZM538.452 149.984C541.122 149.984 543.8 149.951 546.485 149.891L546.44 147.892C543.769 147.952 541.106 147.984 538.452 147.984L538.452 149.984ZM554.51 149.633C557.179 149.522 559.852 149.388 562.527 149.232L562.411 147.235C559.746 147.39 557.084 147.525 554.427 147.635L554.51 149.633ZM570.535 148.709C573.2 148.516 575.867 148.307 578.532 148.083L578.365 146.09C575.707 146.313 573.048 146.522 570.391 146.714L570.535 148.709ZM586.521 147.375C589.184 147.126 591.845 146.868 594.501 146.601L594.302 144.611C591.649 144.877 588.993 145.136 586.335 145.383L586.521 147.375ZM602.474 145.782C605.137 145.502 607.794 145.219 610.442 144.934L610.229 142.945C607.581 143.23 604.926 143.513 602.265 143.793L602.474 145.782ZM618.407 144.076C621.072 143.79 623.727 143.506 626.369 143.228L626.16 141.239C623.515 141.517 620.859 141.801 618.193 142.088L618.407 144.076ZM634.331 142.408C637.002 142.14 639.657 141.883 642.295 141.639L642.111 139.647C639.467 139.892 636.806 140.15 634.132 140.418L634.331 142.408ZM650.267 140.942C652.947 140.723 655.607 140.523 658.244 140.345L658.109 138.35C655.461 138.528 652.792 138.729 650.104 138.949L650.267 140.942ZM666.227 139.876C668.917 139.742 671.579 139.638 674.213 139.567L674.159 137.568C671.509 137.639 668.831 137.744 666.128 137.878L666.227 139.876ZM682.198 139.457C684.892 139.458 687.551 139.5 690.172 139.589L690.24 137.59C687.594 137.501 684.913 137.458 682.198 137.457L682.198 139.457ZM698.122 140.016C700.808 140.216 703.448 140.475 706.039 140.797L706.286 138.812C703.66 138.486 700.987 138.224 698.271 138.021L698.122 140.016ZM713.909 142.005C715.216 142.247 716.508 142.508 717.785 142.789L718.215 140.836C716.915 140.55 715.601 140.284 714.273 140.038L713.909 142.005ZM717.785 142.789C719.052 143.068 720.312 143.351 721.564 143.637L722.01 141.688C720.753 141.4 719.488 141.116 718.215 140.836L717.785 142.789ZM729.012 145.407C731.525 146.026 734.005 146.661 736.452 147.309L736.964 145.375C734.506 144.724 732.015 144.087 729.49 143.465L729.012 145.407ZM743.869 149.345C746.362 150.054 748.817 150.777 751.233 151.513L751.816 149.599C749.387 148.86 746.921 148.133 744.416 147.421L743.869 149.345ZM758.542 153.817C761.003 154.619 763.421 155.435 765.795 156.263L766.454 154.375C764.067 153.542 761.636 152.722 759.162 151.915L758.542 153.817ZM773.007 158.866C775.448 159.777 777.837 160.701 780.174 161.636L780.917 159.779C778.565 158.838 776.161 157.909 773.707 156.993L773.007 158.866ZM787.265 164.573C789.662 165.601 791.999 166.64 794.273 167.689L795.11 165.872C792.819 164.816 790.467 163.77 788.054 162.735L787.265 164.573ZM801.186 170.997C803.528 172.161 805.795 173.334 807.986 174.513L808.934 172.752C806.724 171.562 804.437 170.379 802.076 169.206L801.186 170.997ZM814.651 178.256C816.919 179.586 819.089 180.92 821.161 182.256L822.244 180.575C820.148 179.223 817.954 177.874 815.663 176.53L814.651 178.256ZM827.504 186.569C829.662 188.121 831.683 189.668 833.564 191.206L834.83 189.658C832.914 188.091 830.86 186.519 828.672 184.946L827.504 186.569ZM839.257 196.237C841.203 198.108 842.928 199.954 844.431 201.765L845.97 200.488C844.414 198.613 842.636 196.712 840.644 194.796L839.257 196.237ZM848.753 207.912C850.117 210.303 851.031 212.587 851.5 214.739L853.454 214.313C852.933 211.924 851.933 209.45 850.49 206.92L848.753 207.912ZM851.305 221.82C850.632 223.949 849.347 225.925 847.387 227.706L848.732 229.186C850.922 227.196 852.42 224.927 853.212 222.423L851.305 221.82ZM841.166 231.666C840.088 232.16 838.925 232.623 837.674 233.055L838.326 234.945C839.633 234.495 840.857 234.008 841.998 233.485L841.166 231.666ZM837.674 233.055C836.331 233.518 835.056 233.896 833.846 234.193L834.323 236.135C835.598 235.822 836.932 235.426 838.326 234.945L837.674 233.055ZM826.516 235.009C823.696 234.846 821.478 234.012 819.759 232.646L818.515 234.211C820.604 235.873 823.234 236.823 826.4 237.006L826.516 235.009ZM815.845 226.672C815.14 224.561 814.734 222.076 814.618 219.257L812.619 219.339C812.741 222.294 813.169 224.973 813.948 227.305L815.845 226.672ZM814.923 211.568C815.183 209.143 815.589 206.575 816.133 203.885L814.173 203.488C813.619 206.23 813.202 208.86 812.934 211.355L814.923 211.568ZM817.938 196.305C818.595 193.882 819.341 191.388 820.172 188.838L818.27 188.219C817.43 190.798 816.674 193.324 816.008 195.782L817.938 196.305ZM822.742 181.472C823.63 179.079 824.582 176.651 825.593 174.196L823.743 173.435C822.724 175.91 821.764 178.36 820.867 180.775L822.742 181.472ZM828.685 167.007C829.741 164.652 830.845 162.282 831.994 159.904L830.193 159.034C829.037 161.429 827.924 163.816 826.861 166.188L828.685 167.007ZM835.498 152.896C836.686 150.596 837.912 148.296 839.173 146.004L837.42 145.04C836.152 147.347 834.917 149.662 833.721 151.978L835.498 152.896ZM843.031 139.195C844.347 136.942 845.693 134.703 847.066 132.485L845.365 131.433C843.983 133.665 842.628 135.918 841.304 138.187L843.031 139.195ZM851.27 125.891C852.708 123.702 854.17 121.542 855.651 119.419L854.011 118.274C852.518 120.413 851.046 122.589 849.599 124.793L851.27 125.891ZM860.23 113.063C861.805 110.947 863.399 108.877 865.006 106.862L863.442 105.615C861.821 107.648 860.214 109.735 858.625 111.869L860.23 113.063ZM869.992 100.845C871.722 98.8385 873.462 96.9032 875.209 95.0489L873.753 93.6775C871.985 95.5546 870.225 97.5119 868.477 99.5396L869.992 100.845ZM880.69 89.5213C882.621 87.6771 884.553 85.9439 886.48 84.3337L885.197 82.7992C883.234 84.4401 881.269 86.203 879.309 88.0747L880.69 89.5213ZM892.638 79.6023C894.856 78.0521 897.055 76.6883 899.225 75.529L898.283 73.765C896.034 74.9664 893.767 76.3732 891.492 77.9629L892.638 79.6023ZM906.268 72.4685C908.805 71.6353 911.275 71.1342 913.664 70.9911L913.544 68.9947C910.96 69.1495 908.32 69.6896 905.644 70.5684L906.268 72.4685ZM921.056 71.7983C922.242 72.1511 923.405 72.6169 924.543 73.2019L925.457 71.4233C924.21 70.7819 922.932 70.2696 921.627 69.8813L921.056 71.7983ZM924.543 73.2019C925.594 73.7423 926.684 74.3869 927.814 75.1323L928.915 73.463C927.735 72.6841 926.582 72.0016 925.457 71.4233L924.543 73.2019ZM934.139 79.9895C936.016 81.6074 937.967 83.4262 939.99 85.4294L941.397 84.0085C939.349 81.9795 937.364 80.1283 935.445 78.4746L934.139 79.9895ZM945.533 91.1798C947.275 93.0614 949.062 95.0529 950.889 97.145L952.396 95.829C950.557 93.7246 948.758 91.7185 947 89.8208L945.533 91.1798ZM956.134 103.28C957.826 105.298 959.549 107.388 961.303 109.543L962.854 108.28C961.095 106.119 959.366 104.021 957.667 101.995L956.134 103.28ZM966.299 115.752C967.942 117.814 969.609 119.925 971.299 122.08L972.873 120.845C971.18 118.688 969.51 116.573 967.863 114.505L966.299 115.752ZM976.284 128.469C977.898 130.548 979.531 132.66 981.182 134.801L982.766 133.579C981.113 131.437 979.479 129.323 977.864 127.242L976.284 128.469ZM986.121 141.216C987.739 143.32 989.372 145.446 991.021 147.592L992.607 146.373C990.958 144.228 989.324 142.101 987.707 139.997L986.121 141.216ZM995.939 153.986C997.57 156.103 999.215 158.236 1000.87 160.38L1002.46 159.156C1000.8 157.013 999.154 154.882 997.523 152.765L995.939 153.986ZM1005.81 166.74C1007.46 168.857 1009.12 170.982 1010.79 173.112L1012.37 171.876C1010.69 169.749 1009.03 167.626 1007.39 165.511L1005.81 166.74ZM1015.78 179.428C1017.45 181.532 1019.13 183.638 1020.82 185.742L1022.38 184.488C1020.69 182.388 1019.01 180.285 1017.35 178.184L1015.78 179.428ZM1025.9 192.005C1027.6 194.089 1029.31 196.168 1031.03 198.24L1032.57 196.963C1030.85 194.896 1029.14 192.821 1027.45 190.741L1025.9 192.005ZM1036.21 204.427C1037.95 206.485 1039.7 208.532 1041.45 210.565L1042.97 209.258C1041.22 207.23 1039.47 205.188 1037.74 203.136L1036.21 204.427ZM1046.77 216.643C1048.56 218.667 1050.35 220.674 1052.16 222.661L1053.64 221.316C1051.84 219.336 1050.05 217.335 1048.26 215.318L1046.77 216.643ZM1057.63 228.59C1059.48 230.571 1061.34 232.528 1063.21 234.458L1064.64 233.067C1062.78 231.146 1060.93 229.197 1059.09 227.224L1057.63 228.59ZM1068.85 240.189C1070.78 242.114 1072.72 244.007 1074.66 245.864L1076.04 244.419C1074.11 242.571 1072.18 240.688 1070.26 238.773L1068.85 240.189ZM1080.55 251.368C1082.56 253.206 1084.58 255.002 1086.6 256.754L1087.91 255.242C1085.9 253.502 1083.9 251.717 1081.9 249.891L1080.55 251.368ZM1092.8 261.963C1094.91 263.678 1097.02 265.34 1099.13 266.946L1100.34 265.354C1098.25 263.762 1096.15 262.114 1094.07 260.413L1092.8 261.963ZM1105.71 271.75C1107.95 273.316 1110.19 274.814 1112.43 276.239L1113.51 274.55C1111.29 273.143 1109.07 271.661 1106.86 270.112L1105.71 271.75ZM1119.38 280.402C1121.78 281.759 1124.19 283.026 1126.6 284.196L1127.47 282.398C1125.1 281.246 1122.73 279.998 1120.36 278.66L1119.38 280.402ZM1134.01 287.491C1136.55 288.511 1139.1 289.418 1141.64 290.203L1142.23 288.292C1139.74 287.524 1137.25 286.636 1134.76 285.635L1134.01 287.491ZM1149.57 292.25C1152.26 292.805 1154.95 293.215 1157.64 293.471L1157.83 291.48C1155.21 291.232 1152.6 290.833 1149.97 290.291L1149.57 292.25ZM1165.79 293.76C1168.51 293.69 1171.22 293.451 1173.93 293.032L1173.63 291.056C1171 291.461 1168.37 291.693 1165.74 291.76L1165.79 293.76ZM1181.92 291.259C1184.48 290.513 1187.03 289.597 1189.57 288.502L1188.78 286.665C1186.32 287.728 1183.84 288.616 1181.36 289.338L1181.92 291.259ZM1196.85 284.844C1199.17 283.509 1201.48 282.016 1203.77 280.36L1202.6 278.739C1200.36 280.356 1198.11 281.811 1195.85 283.11L1196.85 284.844ZM1210.07 275.361C1211.11 274.457 1212.15 273.517 1213.19 272.541L1211.81 271.085C1210.8 272.043 1209.78 272.964 1208.76 273.85L1210.07 275.361ZM1213.19 272.541C1214.17 271.61 1215.15 270.667 1216.12 269.712L1214.72 268.286C1213.76 269.231 1212.79 270.164 1211.81 271.085L1213.19 272.541ZM1221.84 263.843C1223.69 261.862 1225.51 259.838 1227.3 257.773L1225.79 256.464C1224.01 258.51 1222.21 260.515 1220.38 262.477L1221.84 263.843ZM1232.55 251.492C1234.25 249.383 1235.93 247.238 1237.58 245.061L1235.98 243.853C1234.34 246.015 1232.68 248.143 1230.99 250.235L1232.55 251.492ZM1242.41 238.481C1243.99 236.271 1245.55 234.033 1247.08 231.769L1245.43 230.646C1243.9 232.898 1242.36 235.122 1240.79 237.318L1242.41 238.481ZM1251.58 224.971C1253.06 222.69 1254.51 220.385 1255.95 218.062L1254.25 217.008C1252.82 219.322 1251.37 221.615 1249.9 223.886L1251.58 224.971ZM1260.18 211.101C1261.57 208.77 1262.95 206.423 1264.31 204.062L1262.58 203.061C1261.22 205.415 1259.85 207.754 1258.47 210.076L1260.18 211.101ZM1268.35 196.977C1269.68 194.612 1271 192.235 1272.31 189.851L1270.55 188.888C1269.25 191.268 1267.93 193.639 1266.61 195.998L1268.35 196.977ZM1276.2 182.689C1277.49 180.3 1278.77 177.906 1280.05 175.508L1278.28 174.568C1277.01 176.963 1275.73 179.355 1274.44 181.74L1276.2 182.689ZM1283.86 168.31C1285.13 165.907 1286.39 163.504 1287.66 161.102L1285.89 160.171C1284.62 162.572 1283.36 164.975 1282.09 167.376L1283.86 168.31ZM1291.45 153.898C1292.71 151.493 1293.98 149.092 1295.25 146.7L1293.48 145.763C1292.21 148.158 1290.95 150.56 1289.68 152.966L1291.45 153.898ZM1299.08 139.515C1300.36 137.121 1301.65 134.737 1302.94 132.366L1301.19 131.409C1299.89 133.784 1298.6 136.172 1297.32 138.57L1299.08 139.515ZM1306.87 125.231C1308.19 122.86 1309.52 120.505 1310.86 118.168L1309.13 117.174C1307.78 119.518 1306.45 121.88 1305.13 124.257L1306.87 125.231ZM1314.96 111.127C1316.34 108.786 1317.74 106.467 1319.15 104.174L1317.45 103.126C1316.03 105.43 1314.63 107.758 1313.24 110.108L1314.96 111.127ZM1323.47 97.3033C1324.95 95.0095 1326.44 92.7458 1327.95 90.5153L1326.3 89.3939C1324.78 91.6382 1323.28 93.915 1321.79 96.2211L1323.47 97.3033ZM1332.57 83.8804C1334.17 81.6615 1335.78 79.4811 1337.42 77.3426L1335.83 76.1269C1334.18 78.2829 1332.55 80.48 1330.95 82.7147L1332.57 83.8804ZM1342.45 70.9946C1344.18 68.8998 1345.93 66.8524 1347.71 64.8561L1346.22 63.5246C1344.42 65.5419 1342.65 67.6095 1340.91 69.7236L1342.45 70.9946ZM1353.24 58.92C1355.14 56.9808 1357.06 55.0993 1359.03 53.2794L1357.67 51.8125C1355.68 53.656 1353.73 55.5609 1351.81 57.5228L1353.24 58.92ZM1365.1 47.9518C1367.18 46.2248 1369.31 44.5661 1371.47 42.9798L1370.29 41.3658C1368.09 42.9767 1365.94 44.6603 1363.82 46.4121L1365.1 47.9518ZM1378.13 38.4293C1380.4 36.9849 1382.72 35.6177 1385.09 34.332L1384.13 32.5745C1381.72 33.8827 1379.37 35.2734 1377.06 36.7419L1378.13 38.4293ZM1392.3 30.7449C1394.73 29.6415 1397.22 28.6211 1399.76 27.6878L1399.07 25.8106C1396.48 26.761 1393.95 27.8 1391.47 28.9234L1392.3 30.7449ZM1407.44 25.1833C1409.98 24.4566 1412.57 23.8137 1415.22 23.2581L1414.81 21.3007C1412.12 21.866 1409.47 22.5204 1406.89 23.2603L1407.44 25.1833ZM1423.2 21.8768C1425.82 21.5168 1428.48 21.2383 1431.21 21.0444L1431.06 19.0495C1428.3 19.2464 1425.59 19.5295 1422.93 19.8955L1423.2 21.8768ZM1439.25 20.7223C1441.91 20.6966 1444.62 20.7486 1447.39 20.8808L1447.48 18.8831C1444.68 18.7491 1441.93 18.6964 1439.23 18.7224L1439.25 20.7223ZM1455.37 21.4732C1458.03 21.74 1460.75 22.0785 1463.51 22.4909L1463.8 20.5129C1461.01 20.0958 1458.26 19.7532 1455.57 19.4832L1455.37 21.4732ZM1471.35 23.8395C1473.99 24.35 1476.67 24.9254 1479.39 25.5675L1479.85 23.6209C1477.1 22.9729 1474.4 22.3918 1471.74 21.876L1471.35 23.8395ZM1487.12 27.5398C1489.7 28.246 1492.31 29.0098 1494.96 29.8327L1495.56 27.9225C1492.88 27.0932 1490.25 26.3231 1487.65 25.6108L1487.12 27.5398ZM1502.63 32.3398C1505.13 33.1985 1507.67 34.1079 1510.23 35.069L1510.94 33.1959C1508.35 32.2286 1505.8 31.313 1503.28 30.4482L1502.63 32.3398ZM1517.93 38.0651C1520.34 39.04 1522.79 40.0591 1525.26 41.1232L1526.05 39.2863C1523.56 38.2163 1521.11 37.1914 1518.68 36.2107L1517.93 38.0651ZM1532.76 44.4512C1534.02 45.0287 1535.3 45.6175 1536.58 46.218L1537.42 44.4073C1536.14 43.804 1534.86 43.2122 1533.59 42.6318L1532.76 44.4512Z" fill="#BEEB42"/>
</svg>
